<svg width="38" height="32" viewBox="0 0 38 32" fill="none" xmlns="http://www.w3.org/2000/svg">
<path d="M30.5871 3.18282V10.0641L31.3551 9.29608H8.15006C7.33982 9.29608 6.5603 9.68008 6.16094 10.4058C5.89214 10.8897 5.88062 11.3927 5.88062 11.9188V22.2599L6.64862 21.4919H3.19263C3.18111 21.4919 3.03135 21.4919 3.03135 21.4842L3.13503 21.4957C3.10047 21.488 3.06975 21.4804 3.03519 21.4727C3.00447 21.465 2.96991 21.4535 2.93919 21.442C2.86239 21.4112 2.87775 21.4189 2.98143 21.465C2.98143 21.4688 2.85855 21.3997 2.85087 21.3959C2.69343 21.3037 2.85087 21.3997 2.84319 21.4036C2.83551 21.4112 2.62815 21.2039 2.63583 21.1962C2.65503 21.177 2.72799 21.3383 2.67039 21.2308C2.64735 21.1885 2.62047 21.1424 2.59743 21.1002C2.51296 20.9543 2.63967 21.2615 2.59743 21.1002C2.59359 21.0848 2.53983 20.9044 2.54751 20.9044L2.55903 21.008C2.55519 20.9735 2.55135 20.9389 2.55135 20.9044C2.54751 20.8391 2.55135 20.8698 2.55135 20.8506V20.8045C2.54367 19.4759 2.55135 18.1434 2.55135 16.8148V3.1329C2.55135 3.1137 2.55519 3.09834 2.55519 3.07914C2.56287 2.99466 2.56287 3.01002 2.54751 3.12906C2.54367 3.12906 2.59359 2.94858 2.59743 2.93322C2.51296 3.0753 2.63967 2.7681 2.59743 2.93322C2.62431 2.89098 2.64735 2.84874 2.67039 2.80266C2.75103 2.65674 2.55135 2.9217 2.67039 2.79882C2.70495 2.76426 2.73567 2.72586 2.77407 2.6913C2.90463 2.56842 2.77407 2.6913 2.77023 2.68746C2.76639 2.68362 2.88543 2.6145 2.89695 2.60682C3.05823 2.5185 2.89311 2.60298 2.89311 2.59914C2.89311 2.59146 3.01599 2.5569 3.03903 2.55306C3.05439 2.54922 3.07359 2.54538 3.08895 2.54154C3.17343 2.52618 3.15423 2.52618 3.03519 2.54538C3.03519 2.5377 3.18111 2.5377 3.19263 2.5377H27.3231C28.1986 2.5377 29.0741 2.52618 29.9497 2.5377C29.9689 2.5377 30.1109 2.53386 30.1109 2.54538C30.1148 2.56458 29.9266 2.49546 30.0841 2.54922C30.1225 2.56074 30.1647 2.57226 30.2069 2.58378C30.0649 2.4993 30.3721 2.62602 30.2069 2.58378C30.2492 2.61066 30.2914 2.6337 30.3375 2.65674C30.4834 2.73738 30.2185 2.5377 30.3413 2.65674C30.3759 2.6913 30.4143 2.72202 30.4489 2.76042C30.5717 2.89098 30.4489 2.76042 30.4527 2.75658C30.4565 2.75274 30.5257 2.87178 30.5333 2.8833C30.6217 3.04458 30.5372 2.87946 30.541 2.87946C30.5487 2.87946 30.5833 3.01386 30.5871 3.02538C30.5909 3.04074 30.5948 3.05994 30.5986 3.0753C30.614 3.15978 30.614 3.14058 30.5948 3.02154C30.5871 3.02538 30.5871 3.1713 30.5871 3.18282C30.5948 3.58602 30.9365 3.97002 31.3551 3.95082C31.766 3.93162 32.1308 3.6129 32.1231 3.18282C32.1001 1.98474 31.1439 1.02091 29.942 1.00171H3.97599C3.71103 1.00171 3.44991 0.997867 3.18495 1.00171C2.2288 1.01707 1.41088 1.61994 1.10368 2.52234C1.01152 2.7873 1 3.06762 1 3.3441V20.8352C1.01152 21.776 1.59136 22.5824 2.47072 22.905C2.91231 23.0663 3.40767 23.024 3.86847 23.024H6.64094C7.05566 23.024 7.40894 22.6708 7.40894 22.256V14.7335C7.40894 13.6698 7.4051 12.61 7.40894 11.5463V11.4465C7.40894 11.4119 7.41278 11.3774 7.41662 11.3428C7.42046 11.2391 7.37438 11.4887 7.41278 11.3927C7.43582 11.3351 7.45502 11.2583 7.46654 11.1969C7.48574 11.1009 7.39358 11.3236 7.44734 11.243C7.47038 11.2084 7.48574 11.17 7.50494 11.1354C7.5011 11.1431 7.5587 11.051 7.5587 11.051C7.57406 11.0586 7.44734 11.1738 7.52798 11.0894L7.66622 10.9511C7.7699 10.8513 7.63166 10.9857 7.62782 10.9818C7.62782 10.9818 7.70078 10.9358 7.7123 10.9281C7.73918 10.9127 7.7699 10.8974 7.80062 10.8782C7.64702 10.9204 7.93886 10.7975 7.80062 10.8782C7.81214 10.8743 7.99646 10.8206 7.99646 10.8282C7.99646 10.8398 7.79294 10.8398 7.94654 10.8359C7.9811 10.8359 8.01566 10.8321 8.05022 10.8321H8.0579C8.20766 10.8282 8.35742 10.8321 8.50717 10.8321H31.3513C31.766 10.8321 32.1193 10.4788 32.1193 10.0641V3.18282C32.1193 2.77962 31.766 2.39562 31.3513 2.41482C30.9404 2.43402 30.5871 2.75274 30.5871 3.18282Z" fill="#F1BF70"/>
<path d="M30.5871 3.18282V10.0641L31.3551 9.29608H8.15006C7.33982 9.29608 6.5603 9.68008 6.16094 10.4058C5.89214 10.8897 5.88062 11.3927 5.88062 11.9188V22.2599L6.64862 21.4919H3.19263C3.18111 21.4919 3.03135 21.4919 3.03135 21.4842L3.13503 21.4957C3.10047 21.488 3.06975 21.4804 3.03519 21.4727C3.00447 21.465 2.96991 21.4535 2.93919 21.442C2.86239 21.4112 2.87775 21.4189 2.98143 21.465C2.98143 21.4688 2.85855 21.3997 2.85087 21.3959C2.69343 21.3037 2.85087 21.3997 2.84319 21.4036C2.83551 21.4112 2.62815 21.2039 2.63583 21.1962C2.65503 21.177 2.72799 21.3383 2.67039 21.2308C2.64735 21.1885 2.62047 21.1424 2.59743 21.1002M30.5871 3.18282C30.5871 3.1713 30.5871 3.02538 30.5948 3.02154C30.614 3.14058 30.614 3.15978 30.5986 3.0753C30.5948 3.05994 30.5909 3.04074 30.5871 3.02538C30.5833 3.01386 30.5487 2.87946 30.541 2.87946C30.5372 2.87946 30.6217 3.04458 30.5333 2.8833C30.5257 2.87178 30.4565 2.75274 30.4527 2.75658C30.4489 2.76042 30.5717 2.89098 30.4489 2.76042C30.4143 2.72202 30.3759 2.6913 30.3413 2.65674C30.2185 2.5377 30.4834 2.73738 30.3375 2.65674C30.2914 2.6337 30.2492 2.61066 30.2069 2.58378M30.5871 3.18282C30.5948 3.58602 30.9365 3.97002 31.3551 3.95082C31.766 3.93162 32.1308 3.6129 32.1231 3.18282C32.1001 1.98474 31.1439 1.02091 29.942 1.00171H3.97599C3.71103 1.00171 3.44991 0.997867 3.18495 1.00171C2.2288 1.01707 1.41088 1.61994 1.10368 2.52234C1.01152 2.7873 1 3.06762 1 3.3441V20.8352C1.01152 21.776 1.59136 22.5824 2.47072 22.905C2.91231 23.0663 3.40767 23.024 3.86847 23.024H6.64094C7.05566 23.024 7.40894 22.6708 7.40894 22.256V14.7335C7.40894 13.6698 7.4051 12.61 7.40894 11.5463V11.4465C7.40894 11.4119 7.41278 11.3774 7.41662 11.3428C7.42046 11.2391 7.37438 11.4887 7.41278 11.3927C7.43582 11.3351 7.45502 11.2583 7.46654 11.1969C7.48574 11.1009 7.39358 11.3236 7.44734 11.243C7.47038 11.2084 7.48574 11.17 7.50494 11.1354C7.5011 11.1431 7.5587 11.051 7.5587 11.051C7.57406 11.0586 7.44734 11.1738 7.52798 11.0894L7.66622 10.9511C7.7699 10.8513 7.63166 10.9857 7.62782 10.9818C7.62782 10.9818 7.70078 10.9358 7.7123 10.9281C7.73918 10.9127 7.7699 10.8974 7.80062 10.8782M30.5871 3.18282C30.5871 2.75274 30.9404 2.43402 31.3513 2.41482C31.766 2.39562 32.1193 2.77962 32.1193 3.18282V10.0641C32.1193 10.4788 31.766 10.8321 31.3513 10.8321H8.50717C8.35742 10.8321 8.20766 10.8282 8.0579 10.8321H8.05022C8.01566 10.8321 7.9811 10.8359 7.94654 10.8359C7.79294 10.8398 7.99646 10.8398 7.99646 10.8282C7.99646 10.8206 7.81214 10.8743 7.80062 10.8782M2.59743 21.1002C2.51296 20.9543 2.63967 21.2615 2.59743 21.1002ZM2.59743 21.1002C2.59359 21.0848 2.53983 20.9044 2.54751 20.9044L2.55903 21.008C2.55519 20.9735 2.55135 20.9389 2.55135 20.9044C2.54751 20.8391 2.55135 20.8698 2.55135 20.8506V20.8045C2.54367 19.4759 2.55135 18.1434 2.55135 16.8148V3.1329C2.55135 3.1137 2.55519 3.09834 2.55519 3.07914C2.56287 2.99466 2.56287 3.01002 2.54751 3.12906C2.54367 3.12906 2.59359 2.94858 2.59743 2.93322M2.59743 2.93322C2.51296 3.0753 2.63967 2.7681 2.59743 2.93322ZM2.59743 2.93322C2.62431 2.89098 2.64735 2.84874 2.67039 2.80266C2.75103 2.65674 2.55135 2.9217 2.67039 2.79882C2.70495 2.76426 2.73567 2.72586 2.77407 2.6913C2.90463 2.56842 2.77407 2.6913 2.77023 2.68746C2.76639 2.68362 2.88543 2.6145 2.89695 2.60682C3.05823 2.5185 2.89311 2.60298 2.89311 2.59914C2.89311 2.59146 3.01599 2.5569 3.03903 2.55306C3.05439 2.54922 3.07359 2.54538 3.08895 2.54154C3.17343 2.52618 3.15423 2.52618 3.03519 2.54538C3.03519 2.5377 3.18111 2.5377 3.19263 2.5377H27.3231C28.1986 2.5377 29.0741 2.52618 29.9497 2.5377C29.9689 2.5377 30.1109 2.53386 30.1109 2.54538C30.1148 2.56458 29.9266 2.49546 30.0841 2.54922C30.1225 2.56074 30.1647 2.57226 30.2069 2.58378M30.2069 2.58378C30.0649 2.4993 30.3721 2.62602 30.2069 2.58378ZM7.80062 10.8782C7.64702 10.9204 7.93886 10.7975 7.80062 10.8782Z" stroke="#F1BF70"/>
<path d="M1.77186 7.27622H30.1532C30.5372 7.27622 30.925 7.2839 31.309 7.27622H31.359C31.7622 7.27622 32.1462 6.92295 32.127 6.50823C32.1078 6.09351 31.789 5.74023 31.359 5.74023H2.97762C2.59362 5.74023 2.20578 5.73255 1.82178 5.74023H1.77186C1.36866 5.74023 0.984665 6.09351 1.00386 6.50823C1.02306 6.92679 1.34178 7.27622 1.77186 7.27622ZM35.4639 11.4772V28.3693C35.4639 28.3885 35.4639 28.5306 35.4562 28.5344C35.4409 28.5382 35.5023 28.3347 35.4601 28.4806C35.4447 28.5267 35.4332 28.5766 35.4178 28.6266C35.3756 28.7802 35.4869 28.5306 35.4294 28.6035C35.3986 28.6458 35.3679 28.7072 35.3449 28.7533C35.2681 28.8915 35.437 28.6726 35.3602 28.7379C35.3295 28.7648 35.3065 28.7994 35.2757 28.8301C35.2681 28.8378 35.1721 28.9338 35.1644 28.9299C35.1452 28.9107 35.3065 28.8378 35.199 28.8954C35.1567 28.9184 35.1106 28.9453 35.0684 28.9683C34.9263 29.0528 35.2297 28.9261 35.0684 28.9683C35.0377 28.976 35.0031 28.9875 34.9724 28.999C34.9378 29.0067 34.9071 29.0144 34.8726 29.0221C34.9916 29.0067 35.007 29.0067 34.9225 29.0144C34.2428 29.0221 33.5631 29.0182 32.8834 29.0182H10.1162C9.4288 29.0182 8.74144 29.0298 8.05792 29.0182H8.00416C7.98496 29.0182 7.9696 29.0144 7.9504 29.0144C7.86592 29.0067 7.88128 29.0067 8.00032 29.0221C8.00032 29.0259 7.86208 28.9875 7.85056 28.9875C7.83904 28.9837 7.75456 28.9568 7.75456 28.9568C7.75456 28.953 7.91584 29.0374 7.7584 28.9491C7.73152 28.9338 7.7008 28.9146 7.67392 28.8992C7.6048 28.8531 7.62016 28.8646 7.70848 28.9338C7.6816 28.9146 7.65856 28.8915 7.63552 28.8685C7.6048 28.8416 7.57792 28.8109 7.55104 28.7802C7.43968 28.6688 7.57792 28.7917 7.56256 28.7994C7.55488 28.8032 7.43584 28.5882 7.43968 28.5843C7.44736 28.5805 7.49728 28.7571 7.44736 28.5805C7.44352 28.569 7.40896 28.4307 7.4128 28.4307C7.42432 28.4307 7.42432 28.6342 7.42048 28.4806C7.42048 28.4384 7.41664 28.4192 7.41664 28.3731V14.5837C7.41664 13.5508 7.40128 12.514 7.41664 11.481V11.4772C7.41664 11.458 7.4128 11.5079 7.41664 11.4234C7.41664 11.4042 7.42048 11.3889 7.42048 11.3697C7.42816 11.2852 7.42816 11.3005 7.4128 11.4196C7.41664 11.4196 7.46272 11.1738 7.48192 11.1777C7.48576 11.1777 7.40128 11.3389 7.4896 11.1815C7.49344 11.1777 7.56256 11.0548 7.57024 11.0548C7.57408 11.0586 7.4512 11.1892 7.57408 11.0586C7.60096 11.0279 7.63168 11.001 7.6624 10.9741C7.77376 10.8628 7.65088 11.001 7.6432 10.9857C7.63936 10.9818 7.7584 10.9127 7.76992 10.905C7.78144 10.8973 7.85824 10.8589 7.85824 10.8589C7.86208 10.8666 7.68544 10.9165 7.86208 10.8666C7.90048 10.8551 7.9504 10.8513 7.98496 10.8359C8.04256 10.8244 8.01952 10.8282 7.90816 10.8436C7.94272 10.8397 7.97728 10.8359 8.01184 10.8359C8.07328 10.8321 8.13472 10.8359 8.19232 10.8359H34.8764C34.8956 10.8359 34.911 10.8397 34.9302 10.8397C34.9993 10.8474 34.9993 10.8474 34.9302 10.8397C34.9148 10.8359 34.8956 10.8359 34.8802 10.8321C34.9148 10.8397 34.9455 10.8474 34.9801 10.8551C34.9916 10.8589 35.126 10.8935 35.126 10.9012C35.1222 10.9242 34.9762 10.8244 35.0799 10.8858C35.1222 10.9127 35.1644 10.9357 35.2105 10.9588C35.3564 11.0394 35.0953 10.8397 35.2143 10.9588C35.2335 10.978 35.3948 11.1239 35.3871 11.1354C35.3717 11.1508 35.295 10.978 35.3679 11.1201C35.3871 11.1546 35.4101 11.193 35.4294 11.2276C35.3871 11.0663 35.5138 11.3697 35.4294 11.2276C35.437 11.2583 35.4486 11.2929 35.4601 11.3236C35.4639 11.3389 35.4678 11.3581 35.4716 11.3735C35.4869 11.458 35.4869 11.4388 35.4678 11.3197C35.4639 11.3197 35.4639 11.4657 35.4639 11.4772C35.4716 11.8804 35.8134 12.2644 36.2319 12.2452C36.6428 12.226 37.0076 11.9072 36.9999 11.4772C36.9807 10.4749 36.2741 9.52646 35.2565 9.34598C35.0722 9.31142 34.8956 9.2999 34.7113 9.2999H8.15776C7.9504 9.2999 7.74688 9.31526 7.5472 9.36134C6.57185 9.58022 5.89601 10.498 5.88065 11.481C5.87681 11.7613 5.88065 12.0378 5.88065 12.3181V28.1811C5.88065 28.281 5.87681 28.3808 5.88449 28.4806C5.96513 29.5674 6.76769 30.4122 7.85056 30.5389C8.08096 30.5658 8.31904 30.5542 8.54944 30.5542H34.3734C34.7113 30.5542 35.0492 30.5696 35.3833 30.4813C36.3356 30.2317 36.9845 29.3446 36.9999 28.3731V11.4772C36.9999 11.074 36.6466 10.69 36.2319 10.7092C35.8172 10.7284 35.4639 11.0471 35.4639 11.4772Z" fill="#F1BF70"/>
<path d="M35.4639 11.4772V28.3693C35.4639 28.3885 35.4639 28.5306 35.4562 28.5344C35.4409 28.5382 35.5023 28.3347 35.4601 28.4806C35.4447 28.5267 35.4332 28.5766 35.4178 28.6266C35.3756 28.7802 35.4869 28.5306 35.4293 28.6035C35.3986 28.6458 35.3679 28.7072 35.3449 28.7533C35.2681 28.8915 35.437 28.6726 35.3602 28.7379C35.3295 28.7648 35.3065 28.7994 35.2758 28.8301C35.2681 28.8378 35.1721 28.9338 35.1644 28.9299C35.1452 28.9107 35.3065 28.8378 35.199 28.8954C35.1567 28.9184 35.1106 28.9453 35.0684 28.9683M35.4639 11.4772C35.4639 11.4657 35.4639 11.3197 35.4677 11.3197C35.4869 11.4388 35.487 11.458 35.4716 11.3735C35.4678 11.3581 35.4639 11.3389 35.4601 11.3236C35.4485 11.2929 35.437 11.2583 35.4293 11.2276M35.4639 11.4772C35.4716 11.8804 35.8133 12.2644 36.2319 12.2452C36.6428 12.226 37.0076 11.9072 36.9999 11.4772M35.4639 11.4772C35.4639 11.0471 35.8172 10.7284 36.2319 10.7092C36.6466 10.69 36.9999 11.074 36.9999 11.4772M35.0684 28.9683C34.9263 29.0528 35.2297 28.9261 35.0684 28.9683ZM35.0684 28.9683C35.0377 28.976 35.0031 28.9875 34.9724 28.999C34.9378 29.0067 34.9071 29.0144 34.8726 29.0221C34.9916 29.0067 35.007 29.0067 34.9225 29.0144C34.2428 29.0221 33.5631 29.0182 32.8834 29.0182H10.1162C9.4288 29.0182 8.74144 29.0298 8.05792 29.0182H8.00416C7.98496 29.0182 7.9696 29.0144 7.9504 29.0144C7.86592 29.0067 7.88128 29.0067 8.00032 29.0221C8.00032 29.0259 7.86208 28.9875 7.85056 28.9875C7.83904 28.9837 7.75456 28.9568 7.75456 28.9568C7.75456 28.953 7.91584 29.0374 7.7584 28.9491C7.73152 28.9338 7.7008 28.9146 7.67392 28.8992C7.6048 28.8531 7.62016 28.8646 7.70848 28.9338C7.6816 28.9146 7.65856 28.8915 7.63552 28.8685C7.6048 28.8416 7.57792 28.8109 7.55104 28.7802C7.43968 28.6688 7.57792 28.7917 7.56256 28.7994C7.55488 28.8032 7.43584 28.5882 7.43968 28.5843C7.44736 28.5805 7.49728 28.7571 7.44736 28.5805C7.44352 28.569 7.40896 28.4307 7.4128 28.4307C7.42432 28.4307 7.42432 28.6342 7.42048 28.4806C7.42048 28.4384 7.41664 28.4192 7.41664 28.3731V14.5837C7.41664 13.5508 7.40128 12.514 7.41664 11.481V11.4772C7.41664 11.458 7.4128 11.5079 7.41664 11.4234C7.41664 11.4042 7.42048 11.3889 7.42048 11.3697C7.42816 11.2852 7.42816 11.3005 7.4128 11.4196C7.41664 11.4196 7.46272 11.1738 7.48192 11.1777C7.48576 11.1777 7.40128 11.3389 7.4896 11.1815C7.49344 11.1777 7.56256 11.0548 7.57024 11.0548C7.57408 11.0586 7.4512 11.1892 7.57408 11.0586C7.60096 11.0279 7.63168 11.001 7.6624 10.9741C7.77376 10.8628 7.65088 11.001 7.6432 10.9857C7.63936 10.9818 7.7584 10.9127 7.76992 10.905C7.78144 10.8973 7.85824 10.8589 7.85824 10.8589C7.86208 10.8666 7.68544 10.9165 7.86208 10.8666C7.90048 10.8551 7.9504 10.8513 7.98496 10.8359C8.04256 10.8244 8.01952 10.8282 7.90816 10.8436C7.94272 10.8397 7.97728 10.8359 8.01184 10.8359C8.07328 10.8321 8.13472 10.8359 8.19232 10.8359H34.8764C34.8956 10.8359 34.911 10.8397 34.9302 10.8397M34.9302 10.8397C34.9993 10.8474 34.9993 10.8474 34.9302 10.8397ZM34.9302 10.8397C34.9148 10.8359 34.8956 10.8359 34.8802 10.8321C34.9148 10.8397 34.9455 10.8474 34.9801 10.8551C34.9916 10.8589 35.126 10.8935 35.126 10.9012C35.1222 10.9242 34.9762 10.8244 35.0799 10.8858C35.1222 10.9127 35.1644 10.9357 35.2105 10.9588C35.3564 11.0394 35.0953 10.8397 35.2143 10.9588C35.2335 10.978 35.3948 11.1239 35.3871 11.1354C35.3718 11.1508 35.295 10.978 35.3679 11.1201C35.3871 11.1546 35.4102 11.193 35.4293 11.2276M35.4293 11.2276C35.3871 11.0663 35.5138 11.3697 35.4293 11.2276ZM36.9999 11.4772C36.9807 10.4749 36.2741 9.52646 35.2566 9.34598C35.0722 9.31142 34.8956 9.2999 34.7113 9.2999H8.15776C7.9504 9.2999 7.74688 9.31526 7.5472 9.36134C6.57185 9.58022 5.89601 10.498 5.88065 11.481C5.87681 11.7613 5.88065 12.0378 5.88065 12.3181V28.1811C5.88065 28.281 5.87681 28.3808 5.88449 28.4806C5.96513 29.5674 6.76769 30.4122 7.85056 30.5389C8.08096 30.5658 8.31904 30.5542 8.54944 30.5542H34.3734C34.7113 30.5542 35.0492 30.5696 35.3833 30.4813C36.3356 30.2317 36.9845 29.3446 36.9999 28.3731V11.4772ZM1.77186 7.27622H30.1532C30.5372 7.27622 30.925 7.2839 31.309 7.27622H31.359C31.7622 7.27622 32.1462 6.92295 32.127 6.50823C32.1078 6.09351 31.789 5.74023 31.359 5.74023H2.97762C2.59362 5.74023 2.20578 5.73255 1.82178 5.74023H1.77186C1.36866 5.74023 0.984665 6.09351 1.00386 6.50823C1.02306 6.92679 1.34178 7.27622 1.77186 7.27622Z" stroke="#F1BF70"/>
<path d="M10.8726 25.2551H13.5337C13.9369 25.2551 14.3209 24.9018 14.3017 24.4871C14.2825 24.0724 13.9638 23.7191 13.5337 23.7191H10.8726C10.4694 23.7191 10.0854 24.0724 10.1046 24.4871C10.1238 24.9018 10.4425 25.2551 10.8726 25.2551ZM15.3385 18.8692H11.7596C11.6751 18.873 11.7097 18.8961 11.7519 18.8769C11.798 18.8538 11.8172 18.8922 11.7519 18.873C11.7596 18.873 11.6559 18.85 11.6521 18.8423C11.6521 18.8116 11.8018 18.9268 11.6982 18.8538C11.5791 18.7693 11.7289 18.8884 11.7327 18.8884C11.7289 18.8922 11.6559 18.8154 11.6598 18.8193C11.5676 18.7386 11.7174 18.8461 11.6866 18.8577C11.6828 18.8577 11.6482 18.7962 11.6482 18.7924C11.6098 18.7079 11.6905 18.9498 11.6559 18.8116C11.6559 18.8193 11.629 18.7117 11.6329 18.7117C11.6559 18.7002 11.6406 18.8845 11.6444 18.7578V15.3402C11.6444 15.2865 11.6482 15.2289 11.6444 15.1751C11.6444 15.1636 11.6521 15.1252 11.6444 15.1175C11.679 15.1598 11.6098 15.2711 11.6406 15.1674C11.6367 15.1751 11.6636 15.0676 11.6713 15.0676C11.6674 15.0676 11.5983 15.2481 11.6598 15.1137C11.7135 15.0023 11.6444 15.1751 11.6252 15.1482C11.6214 15.1444 11.6982 15.0714 11.6943 15.0753C11.7788 14.9831 11.6598 15.1098 11.6559 15.1022C11.6598 15.106 11.7404 15.0446 11.7442 15.0522C11.7634 15.083 11.5791 15.0983 11.702 15.0714C11.7212 15.0676 11.7942 15.0561 11.8018 15.0484C11.7826 15.0638 11.6175 15.0561 11.7558 15.0599H15.0966C15.1695 15.0599 15.2463 15.0638 15.3193 15.0599C15.3385 15.0599 15.3846 15.0676 15.3961 15.0599C15.3423 15.1022 15.2463 15.0215 15.3462 15.0561C15.3654 15.0638 15.4306 15.0868 15.446 15.0868C15.423 15.0906 15.2886 15.0062 15.3999 15.0753C15.5036 15.1406 15.3692 15.0407 15.3654 15.0407C15.3692 15.0369 15.4268 15.1022 15.4383 15.1098C15.5497 15.2097 15.3999 15.0791 15.4114 15.0714C15.4076 15.0714 15.469 15.1559 15.4614 15.1598C15.4498 15.1674 15.4076 14.9678 15.4422 15.1175C15.446 15.1367 15.4575 15.2058 15.4652 15.2174C15.4575 15.2058 15.4614 15.0638 15.4498 15.1444V15.179C15.446 15.2404 15.4498 15.3057 15.4498 15.3671V18.7578C15.4498 18.777 15.4422 18.8077 15.4498 18.8154C15.4345 18.8001 15.4998 18.6311 15.4537 18.7655C15.4498 18.7809 15.446 18.8001 15.4383 18.8154C15.4153 18.8807 15.4153 18.8807 15.4383 18.8193C15.4652 18.8077 15.4729 18.754 15.4306 18.8193C15.3538 18.946 15.4614 18.7847 15.4652 18.7847C15.469 18.7885 15.4038 18.8461 15.3961 18.8577C15.3154 18.9498 15.423 18.8001 15.4345 18.8308C15.4383 18.8385 15.3423 18.8769 15.3462 18.8807C15.3385 18.8692 15.5343 18.8269 15.3884 18.8615C15.3654 18.8692 15.3385 18.873 15.3116 18.8807C15.2118 18.9076 15.5151 18.8615 15.3385 18.8692C14.9391 18.8807 14.5513 19.2148 14.5705 19.6372C14.5897 20.0442 14.9084 20.4167 15.3385 20.4052C16.2524 20.3783 16.9628 19.6717 16.9858 18.7578C16.9897 18.5735 16.9858 18.3892 16.9858 18.2049V15.8126C16.9858 15.6014 16.9897 15.3902 16.9858 15.179C16.9705 14.4148 16.4329 13.6775 15.6495 13.5546C15.3961 13.5162 15.1503 13.5201 14.8969 13.5201H13.7564C13.0998 13.5201 12.4431 13.5162 11.7865 13.5201C11.0684 13.5278 10.4425 13.954 10.1967 14.6337C10.0969 14.914 10.1046 15.2058 10.1046 15.5015V18.6772C10.1046 19.2801 10.3734 19.8445 10.8995 20.1671C11.2412 20.3745 11.6137 20.4052 11.9977 20.4052H15.3385C15.7417 20.4052 16.1257 20.0519 16.1065 19.6372C16.0873 19.2186 15.7686 18.8692 15.3385 18.8692ZM16.4521 25.2551H19.1132C19.5164 25.2551 19.9004 24.9018 19.8812 24.4871C19.862 24.0724 19.5433 23.7191 19.1132 23.7191H16.4521C16.0489 23.7191 15.6649 24.0724 15.6841 24.4871C15.7033 24.9018 16.022 25.2551 16.4521 25.2551ZM22.0316 25.2935H24.6927C25.0959 25.2935 25.4799 24.9402 25.4607 24.5255C25.4415 24.1108 25.1228 23.7575 24.6927 23.7575H22.0316C21.6284 23.7575 21.2444 24.1108 21.2636 24.5255C21.2828 24.9402 21.6015 25.2935 22.0316 25.2935ZM27.6111 25.2935H30.2722C30.6754 25.2935 31.0594 24.9402 31.0402 24.5255C31.021 24.1108 30.7023 23.7575 30.2722 23.7575H27.6111C27.2079 23.7575 26.8239 24.1108 26.8431 24.5255C26.8623 24.9402 27.181 25.2935 27.6111 25.2935Z" fill="#F1BF70"/>
<path d="M15.3385 18.8692H11.7596C11.6751 18.873 11.7097 18.8961 11.7519 18.8769C11.798 18.8538 11.8172 18.8922 11.7519 18.873C11.7596 18.873 11.6559 18.85 11.6521 18.8423C11.6521 18.8116 11.8018 18.9268 11.6982 18.8538C11.5791 18.7693 11.7289 18.8884 11.7327 18.8884C11.7289 18.8922 11.6559 18.8154 11.6598 18.8193C11.5676 18.7386 11.7174 18.8461 11.6866 18.8577C11.6828 18.8577 11.6482 18.7962 11.6482 18.7924C11.6098 18.7079 11.6905 18.9498 11.6559 18.8116C11.6559 18.8193 11.629 18.7117 11.6329 18.7117C11.6559 18.7002 11.6406 18.8845 11.6444 18.7578V15.3402C11.6444 15.2865 11.6482 15.2289 11.6444 15.1751C11.6444 15.1636 11.6521 15.1252 11.6444 15.1175C11.679 15.1598 11.6098 15.2711 11.6406 15.1674C11.6367 15.1751 11.6636 15.0676 11.6713 15.0676C11.6674 15.0676 11.5983 15.2481 11.6598 15.1137C11.7135 15.0023 11.6444 15.1751 11.6252 15.1482C11.6214 15.1444 11.6982 15.0714 11.6943 15.0753C11.7788 14.9831 11.6598 15.1098 11.6559 15.1022C11.6598 15.106 11.7404 15.0446 11.7442 15.0522C11.7634 15.083 11.5791 15.0983 11.702 15.0714C11.7212 15.0676 11.7942 15.0561 11.8018 15.0484C11.7826 15.0638 11.6175 15.0561 11.7558 15.0599H15.0966C15.1695 15.0599 15.2463 15.0638 15.3193 15.0599C15.3385 15.0599 15.3846 15.0676 15.3961 15.0599C15.3423 15.1022 15.2463 15.0215 15.3462 15.0561C15.3654 15.0638 15.4306 15.0868 15.446 15.0868C15.423 15.0906 15.2886 15.0062 15.3999 15.0753C15.5036 15.1406 15.3692 15.0407 15.3654 15.0407C15.3692 15.0369 15.4268 15.1022 15.4383 15.1098C15.5497 15.2097 15.3999 15.0791 15.4114 15.0714C15.4076 15.0714 15.469 15.1559 15.4614 15.1598C15.4498 15.1674 15.4076 14.9678 15.4422 15.1175C15.446 15.1367 15.4575 15.2058 15.4652 15.2174C15.4575 15.2058 15.4614 15.0638 15.4498 15.1444V15.179C15.446 15.2404 15.4498 15.3057 15.4498 15.3671V18.7578C15.4498 18.777 15.4422 18.8077 15.4498 18.8154C15.4345 18.8001 15.4998 18.6311 15.4537 18.7655C15.4498 18.7809 15.446 18.8001 15.4383 18.8154C15.4153 18.8807 15.4153 18.8807 15.4383 18.8193C15.4652 18.8077 15.4729 18.754 15.4306 18.8193C15.3538 18.946 15.4614 18.7847 15.4652 18.7847C15.469 18.7885 15.4038 18.8461 15.3961 18.8577C15.3154 18.9498 15.423 18.8001 15.4345 18.8308C15.4383 18.8385 15.3423 18.8769 15.3462 18.8807C15.3385 18.8692 15.5343 18.8269 15.3884 18.8615C15.3654 18.8692 15.3385 18.873 15.3116 18.8807C15.2118 18.9076 15.5151 18.8615 15.3385 18.8692ZM15.3385 18.8692C14.9391 18.8807 14.5513 19.2148 14.5705 19.6372C14.5897 20.0442 14.9084 20.4167 15.3385 20.4052M15.3385 18.8692C15.7686 18.8692 16.0873 19.2186 16.1065 19.6372C16.1257 20.0519 15.7417 20.4052 15.3385 20.4052M15.3385 20.4052C16.2524 20.3783 16.9628 19.6717 16.9858 18.7578C16.9897 18.5735 16.9858 18.3892 16.9858 18.2049V15.8126C16.9858 15.6014 16.9897 15.3902 16.9858 15.179C16.9705 14.4148 16.4329 13.6775 15.6495 13.5546C15.3961 13.5162 15.1503 13.5201 14.8969 13.5201H13.7564C13.0998 13.5201 12.4431 13.5162 11.7865 13.5201C11.0684 13.5278 10.4425 13.954 10.1967 14.6337C10.0969 14.914 10.1046 15.2058 10.1046 15.5015V18.6772C10.1046 19.2801 10.3734 19.8445 10.8995 20.1671C11.2412 20.3745 11.6137 20.4052 11.9977 20.4052H15.3385ZM10.8726 25.2551H13.5337C13.9369 25.2551 14.3209 24.9018 14.3017 24.4871C14.2825 24.0724 13.9638 23.7191 13.5337 23.7191H10.8726C10.4694 23.7191 10.0854 24.0724 10.1046 24.4871C10.1238 24.9018 10.4425 25.2551 10.8726 25.2551ZM16.4521 25.2551H19.1132C19.5164 25.2551 19.9004 24.9018 19.8812 24.4871C19.862 24.0724 19.5433 23.7191 19.1132 23.7191H16.4521C16.0489 23.7191 15.6649 24.0724 15.6841 24.4871C15.7033 24.9018 16.022 25.2551 16.4521 25.2551ZM22.0316 25.2935H24.6927C25.0959 25.2935 25.4799 24.9402 25.4607 24.5255C25.4415 24.1108 25.1228 23.7575 24.6927 23.7575H22.0316C21.6284 23.7575 21.2444 24.1108 21.2636 24.5255C21.2828 24.9402 21.6015 25.2935 22.0316 25.2935ZM27.6111 25.2935H30.2722C30.6754 25.2935 31.0594 24.9402 31.0402 24.5255C31.021 24.1108 30.7023 23.7575 30.2722 23.7575H27.6111C27.2079 23.7575 26.8239 24.1108 26.8431 24.5255C26.8623 24.9402 27.181 25.2935 27.6111 25.2935Z" stroke="#F1BF70"/>
</svg>
