<svg width="1440" height="1024" viewBox="0 0 1440 1024" fill="none" xmlns="http://www.w3.org/2000/svg">
<rect width="1440" height="1024" fill="#335E4A"/>
<mask id="mask0_2_13" style="mask-type:alpha" maskUnits="userSpaceOnUse" x="0" y="0" width="1440" height="1024">
<path d="M0 0H1440V1024H0V0Z" fill="#F1CA38"/>
</mask>
<g mask="url(#mask0_2_13)">
<g filter="url(#filter0_f_2_13)">
<path fill-rule="evenodd" clip-rule="evenodd" d="M886.294 587.654C832.069 671.717 799.09 797.562 688.261 799.711C578.26 801.844 522.965 656.852 424.257 596.615C324.199 535.554 174.732 550.359 119.102 452.377C60.4284 349.036 89.4463 217.294 166.979 143.471C237.384 76.4347 368.537 136.093 471.047 117.271C579.399 97.3765 662.212 -8.56398 772.761 32.2442C892.062 76.2827 978.517 198.228 1002.03 313.279C1024.04 420.926 942.059 501.204 886.294 587.654Z" fill="#57CC99"/>
<path fill-rule="evenodd" clip-rule="evenodd" d="M807.025 763.888C850.739 883.713 1015.97 985.145 952.573 1102.13C889.14 1219.17 700.563 1169.11 567.331 1206.17C451.01 1238.52 348.087 1326.35 232.435 1302.42C95.4483 1274.08 -37.4515 1195.78 -82.4947 1071.73C-127.889 946.715 -88.5201 792.001 10.1934 690.364C95.7957 602.227 245.677 658.753 362.31 613.759C489.414 564.724 579.565 380.249 704.62 422.466C827.496 463.947 764.697 647.864 807.025 763.888Z" fill="#80ED99"/>
<path fill-rule="evenodd" clip-rule="evenodd" d="M1118.78 268.703C1254.48 271.547 1424.29 209.696 1508.79 299.798C1593.62 390.257 1467.64 515.271 1458.14 630.574C1449.96 729.994 1520.93 834.072 1457.89 918.181C1385.2 1015.18 1251.55 1106.44 1118.78 1083.39C988.962 1060.86 991.808 897.113 894.911 820.447C789.971 737.417 586.876 747.371 546.474 630.574C503.47 506.255 586.543 360.47 709.012 283.033C822.949 210.991 976.712 265.725 1118.78 268.703Z" fill="#2F7152"/>
</g>
</g>
<defs>
<filter id="filter0_f_2_13" x="-501.248" y="-377.027" width="2439.25" height="2083.53" filterUnits="userSpaceOnUse" color-interpolation-filters="sRGB">
<feFlood flood-opacity="0" result="BackgroundImageFix"/>
<feBlend mode="normal" in="SourceGraphic" in2="BackgroundImageFix" result="shape"/>
<feGaussianBlur stdDeviation="200" result="effect1_foregroundBlur_2_13"/>
</filter>
</defs>
</svg>
