<svg width="24" height="25" viewBox="0 0 24 25" fill="none" xmlns="http://www.w3.org/2000/svg">
<path d="M21.0789 3.35796H20.0589V2.02513C20.0589 1.6264 19.9005 1.24401 19.6186 0.962065C19.3367 0.680122 18.9543 0.521729 18.5555 0.521729C18.1568 0.521729 17.7744 0.680122 17.4925 0.962065C17.2105 1.24401 17.0521 1.6264 17.0521 2.02513V3.35796H13.2178V2.02513C13.2178 1.8277 13.1789 1.6322 13.1033 1.4498C13.0278 1.2674 12.917 1.10167 12.7774 0.962065C12.6378 0.822461 12.4721 0.711721 12.2897 0.636168C12.1073 0.560615 11.9118 0.521729 11.7144 0.521729C11.5169 0.521729 11.3214 0.560615 11.139 0.636168C10.9566 0.711721 10.7909 0.822461 10.6513 0.962065C10.5117 1.10167 10.401 1.2674 10.3254 1.4498C10.2499 1.6322 10.211 1.8277 10.211 2.02513V3.35796H6.37661V2.02513C6.37661 1.6264 6.21821 1.24401 5.93627 0.962065C5.65433 0.680122 5.27193 0.521729 4.87321 0.521729C4.47448 0.521729 4.09208 0.680122 3.81014 0.962065C3.5282 1.24401 3.3698 1.6264 3.3698 2.02513V3.35796H2.27954C1.67298 3.36091 1.09235 3.60432 0.665017 4.03479C0.23768 4.46526 -0.00147559 5.04765 6.85093e-06 5.65421V22.2255C-0.00147523 22.8321 0.237739 23.4146 0.665169 23.8451C1.0926 24.2755 1.67333 24.5189 2.27997 24.5217H21.0789C21.6855 24.5188 22.2661 24.2754 22.6934 23.8449C23.1208 23.4144 23.3599 22.832 23.3584 22.2255V5.65421C23.3599 5.04757 23.1207 4.46512 22.6933 4.03464C22.2659 3.60415 21.6855 3.3608 21.0789 3.35796ZM17.9093 2.02513C17.9093 1.85373 17.9773 1.68935 18.0985 1.56815C18.2197 1.44695 18.3841 1.37886 18.5555 1.37886C18.7269 1.37886 18.8913 1.44695 19.0125 1.56815C19.1337 1.68935 19.2018 1.85373 19.2018 2.02513V3.35796H17.9093V2.02513ZM11.0681 2.02513C11.0681 1.85373 11.1362 1.68935 11.2574 1.56815C11.3786 1.44695 11.543 1.37886 11.7144 1.37886C11.8858 1.37886 12.0502 1.44695 12.1714 1.56815C12.2926 1.68935 12.3606 1.85373 12.3606 2.02513V3.35796H11.0681V2.02513ZM4.22693 2.02513C4.22693 1.85373 4.29502 1.68935 4.41622 1.56815C4.53742 1.44695 4.7018 1.37886 4.87321 1.37886C5.04461 1.37886 5.20899 1.44695 5.33019 1.56815C5.45139 1.68935 5.51948 1.85373 5.51948 2.02513V3.35796H4.2265L4.22693 2.02513ZM2.27954 4.21509H3.3698V5.04393C3.37145 5.28314 3.42987 5.51853 3.54024 5.73076C3.65062 5.94298 3.8098 6.12597 4.00469 6.26467C4.19959 6.40337 4.42462 6.49382 4.66129 6.52859C4.89797 6.56335 5.13951 6.54142 5.36605 6.46462C5.41924 6.44619 5.46827 6.41746 5.51035 6.38008C5.55244 6.3427 5.58674 6.2974 5.61132 6.24676C5.63589 6.19612 5.65025 6.14113 5.65358 6.08494C5.6569 6.02875 5.64912 5.97246 5.63069 5.91928C5.61226 5.86609 5.58353 5.81706 5.54615 5.77498C5.50877 5.73289 5.46347 5.69858 5.41283 5.67401C5.36219 5.64944 5.3072 5.63508 5.25101 5.63175C5.19482 5.62843 5.13853 5.63621 5.08534 5.65464C4.98794 5.68758 4.88412 5.69695 4.78239 5.68198C4.68067 5.66701 4.58394 5.62813 4.50016 5.56853C4.41638 5.50892 4.34793 5.43029 4.30043 5.3391C4.25294 5.24791 4.22775 5.14675 4.22693 5.04393V4.21509H10.211V5.04393C10.2114 5.44252 10.37 5.82465 10.6518 6.1065C10.9336 6.38834 11.3158 6.54688 11.7144 6.54734C12.0834 6.56576 12.6238 6.38362 12.4721 5.91949C12.4536 5.86629 12.4249 5.81726 12.3875 5.77517C12.3501 5.73309 12.3047 5.6988 12.2541 5.67424C12.2034 5.64968 12.1484 5.63535 12.0922 5.63206C12.036 5.62877 11.9797 5.63659 11.9265 5.65507C11.8291 5.68802 11.7252 5.69739 11.6235 5.6824C11.5217 5.6674 11.4249 5.62848 11.3412 5.56883C11.2574 5.50918 11.1889 5.43049 11.1415 5.33924C11.094 5.248 11.0688 5.14679 11.0681 5.04393V4.21509H17.0521V5.04393C17.0538 5.28309 17.1122 5.51843 17.2226 5.73061C17.3329 5.94279 17.4921 6.12575 17.6869 6.26444C17.8817 6.40313 18.1067 6.4936 18.3433 6.5284C18.5799 6.5632 18.8214 6.54134 19.048 6.46462C19.1546 6.42689 19.2421 6.3485 19.2912 6.24655C19.3403 6.14461 19.3471 6.02737 19.3101 5.92044C19.2731 5.8135 19.1953 5.72554 19.0937 5.67574C18.992 5.62595 18.8749 5.61836 18.7677 5.65464C18.6703 5.68768 18.5664 5.69713 18.4647 5.6822C18.3629 5.66727 18.2661 5.6284 18.1823 5.56877C18.0985 5.50915 18.0301 5.43048 17.9826 5.33924C17.9351 5.24799 17.91 5.14678 17.9093 5.04393V4.21509H21.0789C21.4582 4.21781 21.821 4.37084 22.0876 4.64061C22.3543 4.91039 22.503 5.2749 22.5013 5.65421V7.81203C22.4382 7.7728 22.3657 7.7512 22.2913 7.74946L0.857134 7.77174V5.65464C0.855195 5.27511 1.00393 4.91031 1.27069 4.64034C1.53745 4.37036 1.90044 4.21727 2.27997 4.21466L2.27954 4.21509ZM21.0789 23.6646H2.27954C1.90023 23.6619 1.53749 23.5089 1.27084 23.2391C1.0042 22.9693 0.855423 22.6048 0.857134 22.2255V8.62887L22.2922 8.60658C22.3662 8.60467 22.4384 8.58307 22.5013 8.54401V22.2255C22.503 22.6049 22.3542 22.9694 22.0875 23.2392C21.8207 23.509 21.4583 23.662 21.0789 23.6646Z" fill="#BCC3D7"/>
<path d="M6.56341 10.5956H3.79831C3.68465 10.5956 3.57565 10.6407 3.49527 10.7211C3.4149 10.8015 3.36975 10.9105 3.36975 11.0241V13.5218C3.36975 13.6355 3.4149 13.7445 3.49527 13.8249C3.57565 13.9052 3.68465 13.9504 3.79831 13.9504H6.56341C6.67707 13.9504 6.78608 13.9052 6.86645 13.8249C6.94682 13.7445 6.99197 13.6355 6.99197 13.5218V11.0241C6.99197 10.9105 6.94682 10.8015 6.86645 10.7211C6.78608 10.6407 6.67707 10.5956 6.56341 10.5956ZM6.13484 13.0933H4.22688V11.4527H6.13484V13.0933ZM12.6447 10.5956H9.87921C9.76554 10.5956 9.65654 10.6407 9.57617 10.7211C9.49579 10.8015 9.45064 10.9105 9.45064 11.0241V13.5218C9.45064 13.6355 9.49579 13.7445 9.57617 13.8249C9.65654 13.9052 9.76554 13.9504 9.87921 13.9504H12.6443C12.758 13.9504 12.867 13.9052 12.9473 13.8249C13.0277 13.7445 13.0729 13.6355 13.0729 13.5218V11.0241C13.0729 10.9105 13.0277 10.8015 12.9473 10.7211C12.867 10.6407 12.7584 10.5956 12.6447 10.5956ZM12.2162 13.0933H10.3078V11.4527H12.2157L12.2162 13.0933ZM18.7256 10.5956H15.9605C15.8469 10.5956 15.7379 10.6407 15.6575 10.7211C15.5771 10.8015 15.532 10.9105 15.532 11.0241V13.5218C15.532 13.6355 15.5771 13.7445 15.6575 13.8249C15.7379 13.9052 15.8469 13.9504 15.9605 13.9504H18.726C18.8397 13.9504 18.9487 13.9052 19.0291 13.8249C19.1095 13.7445 19.1546 13.6355 19.1546 13.5218V11.0241C19.1546 10.9105 19.1095 10.8015 19.0291 10.7211C18.9487 10.6407 18.8393 10.5956 18.7256 10.5956ZM18.2971 13.0933H16.3891V11.4527H18.2975L18.2971 13.0933ZM6.56341 16.6765H3.79831C3.68465 16.6765 3.57565 16.7216 3.49527 16.802C3.4149 16.8824 3.36975 16.9914 3.36975 17.105V19.6027C3.36975 19.7164 3.4149 19.8254 3.49527 19.9057C3.57565 19.9861 3.68465 20.0313 3.79831 20.0313H6.56341C6.67707 20.0313 6.78608 19.9861 6.86645 19.9057C6.94682 19.8254 6.99197 19.7164 6.99197 19.6027V17.105C6.99197 16.9914 6.94682 16.8824 6.86645 16.802C6.78608 16.7216 6.67707 16.6765 6.56341 16.6765ZM6.13484 19.1741H4.22688V17.5336H6.13484V19.1741ZM12.6447 16.6765H9.87921C9.76554 16.6765 9.65654 16.7216 9.57617 16.802C9.49579 16.8824 9.45064 16.9914 9.45064 17.105V19.6027C9.45064 19.7164 9.49579 19.8254 9.57617 19.9057C9.65654 19.9861 9.76554 20.0313 9.87921 20.0313H12.6443C12.758 20.0313 12.867 19.9861 12.9473 19.9057C13.0277 19.8254 13.0729 19.7164 13.0729 19.6027V17.105C13.0729 16.9914 13.0277 16.8824 12.9473 16.802C12.867 16.7216 12.7584 16.6765 12.6447 16.6765ZM12.2162 19.1741H10.3078V17.5336H12.2157L12.2162 19.1741ZM18.7256 16.6765H15.9605C15.8469 16.6765 15.7379 16.7216 15.6575 16.802C15.5771 16.8824 15.532 16.9914 15.532 17.105V19.6027C15.532 19.7164 15.5771 19.8254 15.6575 19.9057C15.7379 19.9861 15.8469 20.0313 15.9605 20.0313H18.726C18.8397 20.0313 18.9487 19.9861 19.0291 19.9057C19.1095 19.8254 19.1546 19.7164 19.1546 19.6027V17.105C19.1546 16.9914 19.1095 16.8824 19.0291 16.802C18.9487 16.7216 18.8393 16.6765 18.7256 16.6765ZM18.2971 19.1741H16.3891V17.5336H18.2975L18.2971 19.1741Z" fill="#BCC3D7"/>
</svg>
