<svg xmlns="http://www.w3.org/2000/svg" version="1.1" xmlns:xlink="http://www.w3.org/1999/xlink" width="64" height="64" x="0" y="0" viewBox="0 0 682.667 682.667" style="enable-background:new 0 0 512 512" xml:space="preserve" class=""><g><defs><clipPath id="a" clipPathUnits="userSpaceOnUse"><path d="M0 512h512V0H0Z" fill="#335e4a" opacity="1" data-original="#000000" class=""></path></clipPath></defs><g clip-path="url(#a)" transform="matrix(1.33333 0 0 -1.33333 0 682.667)"><path d="M0 0c16.341-8.702 25.828-16.242 34.098-29.678 19.711-31.973 37.779-32.54 58.906-45.721l65.591-40.902c11.526-7.172 21.098-10.233 27.471 1.757 6.372 11.99.481 36.906-13.085 50.965l-36.306 37.7c-8.355 9.836-2.691 15.986 11.158 18.311 37.1 6.208 45.681-9.893 62.164-38.21m70.206-20.409-39.62 69.9c-22.317 41.441-62.759 39.571-104.616 44.559C89.719 53.8 86.179 59.525 43.642 82.145" style="stroke-linecap: round; stroke-linejoin: round; stroke-miterlimit: 10; stroke-dasharray: none; stroke-opacity: 1;" transform="translate(84.608 379.058)" fill="none" stroke="#335E4A" stroke-width="20.176px" stroke-linecap="round" stroke-linejoin="round" stroke-miterlimit="10" stroke-dasharray="none" stroke-opacity="" data-original="#000000" opacity="1"></path><path d="m0 0 32.285-17.206c7.363-3.911 16.568-1.077 20.476 6.265l49.674 93.511c3.908 7.342 1.105 16.582-6.259 20.466l-32.285 17.205c-7.363 3.912-16.568 1.106-20.476-6.264L-6.259 20.465C-10.167 13.124-7.363 3.912 0 0Z" style="stroke-linecap: round; stroke-linejoin: round; stroke-miterlimit: 10; stroke-dasharray: none; stroke-opacity: 1;" transform="translate(26.523 379.993)" fill="none" stroke="#335E4A" stroke-width="20.176px" stroke-linecap="round" stroke-linejoin="round" stroke-miterlimit="10" stroke-dasharray="none" stroke-opacity="" data-original="#000000" opacity="1"></path><path d="M0 0h348.059v-187.307c0-11.819-9.685-21.514-21.495-21.514H21.495C9.686-208.821 0-199.126 0-187.307Z" style="stroke-linecap: round; stroke-linejoin: round; stroke-miterlimit: 10; stroke-dasharray: none; stroke-opacity: 1;" transform="translate(145.44 218.82)" fill="none" stroke="#335E4A" stroke-width="20.176px" stroke-linecap="round" stroke-linejoin="round" stroke-miterlimit="10" stroke-dasharray="none" stroke-opacity="" data-original="#000000" opacity="1"></path><path d="M0 0c-12.518 10.601-20.419 25.284-22.77 40.959m13.339 50.795c19.513 25.086 54.744 33.278 83.744 17.858 32.427-17.291 44.746-57.598 27.499-90.082A66.606 66.606 0 0 0 86.123 0" style="stroke-linecap: round; stroke-linejoin: round; stroke-miterlimit: 10; stroke-dasharray: none; stroke-opacity: 1;" transform="translate(271.127 218.82)" fill="none" stroke="#335E4A" stroke-width="20.176px" stroke-linecap="round" stroke-linejoin="round" stroke-miterlimit="10" stroke-dasharray="none" stroke-opacity="" data-original="#000000" opacity="1"></path><path d="M0 0h194.25m-348.059 0h64.09" style="stroke-linecap: round; stroke-linejoin: round; stroke-miterlimit: 10; stroke-dasharray: none; stroke-opacity: 1;" transform="translate(299.25 159.55)" fill="none" stroke="#335E4A" stroke-width="20.176px" stroke-linecap="round" stroke-linejoin="round" stroke-miterlimit="10" stroke-dasharray="none" stroke-opacity="" data-original="#000000" opacity="1"></path><path d="M224.002 59.292h190.937v50.994H224.002Z" style="stroke-linecap: round; stroke-linejoin: round; stroke-miterlimit: 10; stroke-dasharray: none; stroke-opacity: 1;" fill="none" stroke="#335E4A" stroke-width="20.176px" stroke-linecap="round" stroke-linejoin="round" stroke-miterlimit="10" stroke-dasharray="none" stroke-opacity="" data-original="#000000" opacity="1"></path><path d="M0 0h-.057" style="stroke-linecap: round; stroke-linejoin: round; stroke-miterlimit: 10; stroke-dasharray: none; stroke-opacity: 1;" transform="translate(254.446 159.55)" fill="none" stroke="#335E4A" stroke-width="20.176px" stroke-linecap="round" stroke-linejoin="round" stroke-miterlimit="10" stroke-dasharray="none" stroke-opacity="" data-original="#000000" opacity="1"></path></g></g></svg>