<svg width="169" height="177" viewBox="0 0 169 177" fill="none" xmlns="http://www.w3.org/2000/svg">
<path d="M148.525 108.672L148.525 108.672C136.856 119.895 124.523 125.647 111.907 125.791L111.907 125.791C99.6209 125.93 87.2536 120.598 75.1695 110.119C72.4498 107.803 68.2897 103.024 64.6392 97.4043L64.4561 97.1225L64.648 96.8466C67.6528 92.5245 69.6605 87.3967 70.6521 82.4512L148.525 108.672ZM148.525 108.672L148.531 108.666M148.525 108.672L148.531 108.666M148.531 108.666C149.307 107.895 150.545 107.885 151.324 108.651C152.1 109.414 152.105 110.657 151.335 111.44L151.335 111.44L151.327 111.449C139.123 124.466 125.811 131.185 112.125 131.971L112.125 131.971C98.4253 132.765 84.223 127.548 70.0618 116.249C67.2292 113.942 62.8765 109.312 58.8312 103.698L58.5392 103.293L58.1337 103.585C53.9487 106.593 48.7887 108.212 42.6925 107.456C29.6861 105.782 19.9481 93.6071 14.7253 79.8739L14.7251 79.8735C11.8692 72.3842 9.02114 62.7089 10.2219 54.727C10.4941 52.9241 11.3866 51.2196 12.5482 50.3833C13.1175 49.9734 13.7377 49.7797 14.3894 49.8554C15.0456 49.9317 15.7983 50.2887 16.6115 51.1025L16.6134 51.1043C17.63 52.111 17.8624 53.116 17.8004 54.2166C17.7684 54.7842 17.6575 55.3762 17.5225 56.0185C17.4975 56.1377 17.4716 56.2587 17.4454 56.3815C17.3323 56.9099 17.2125 57.4698 17.1267 58.0436C16.5018 62.2063 17.374 66.8673 18.8605 71.3237C20.3494 75.7877 22.47 80.0912 24.3873 83.5558C28.8099 91.5671 35.1112 98.5406 43.623 99.4183C47.6678 99.862 51.0018 98.6239 53.6698 96.4941L54.0012 96.2296M148.531 108.666L54.0012 96.2296M54.0012 96.2296L53.7943 95.8594M54.0012 96.2296L53.7943 95.8594M53.7943 95.8594C51.5822 91.9016 49.8179 87.8028 48.9467 83.9155C47.2983 76.5256 48.6516 69.9106 54.0808 65.2834C58.0506 61.9161 61.4363 61.4417 63.8619 62.0051C65.7779 62.4529 67.4182 63.5237 68.7011 65.2929M53.7943 95.8594L68.7011 65.2929M68.7011 65.2929C69.8542 66.8842 70.7145 69.334 71.0975 72.3286M68.7011 65.2929L71.0975 72.3286M71.0975 72.3286C71.4795 75.3148 71.3819 78.8062 70.6521 82.4511L71.0975 72.3286ZM57.2619 79.5381L57.262 79.5389C57.4378 81.7373 58.0353 84.0332 58.9088 86.3514C59.0174 86.6717 59.1408 86.985 59.2947 87.3179L59.775 88.3572L60.2109 87.2985C61.8011 83.4361 62.5956 79.2861 62.5961 75.7842L62.5961 75.7819C62.5889 74.1698 62.1035 72.2534 61.8318 71.3036L61.6207 70.5659L61.0311 71.0569C60.8439 71.2128 60.6386 71.3975 60.4424 71.574L60.4381 71.5778C60.2369 71.7589 60.0451 71.9313 59.8741 72.0736L59.8712 72.0761C57.5772 74.0159 57.0422 76.733 57.2619 79.5381Z" fill="#335E4A" stroke="#335E4A"/>
<path fill-rule="evenodd" clip-rule="evenodd" d="M61.6777 71.18C61.9208 71.315 62.1539 71.4008 62.1353 71.2096C62.1066 70.9691 61.9451 71.0073 61.6777 71.18Z" fill="#335E4A"/>
<path fill-rule="evenodd" clip-rule="evenodd" d="M144.876 113.724C143.745 116.249 142.653 118.936 141.874 121.497C140.675 125.494 140.161 129.15 141.147 131.812C141.454 133.14 142.793 133.964 144.113 133.643C145.441 133.335 146.265 131.996 145.943 130.677C145.875 130.018 146.105 129.335 146.322 128.567C146.819 126.756 147.931 124.866 149.141 122.827C150.687 120.227 152.547 117.63 154.133 115.227C155.577 113.053 156.781 111.036 157.547 109.437C158.756 106.922 158.822 104.809 158.548 103.572C158.472 103.249 155.79 98.4452 151.204 100.359C149.564 101.048 145.501 103.009 145.3 103.106C142.859 104.443 138.324 106.859 134.005 108.122C132.64 108.525 131.322 108.882 130.122 108.932C130.058 108.822 129.994 108.712 129.917 108.61C128.796 107.018 126.615 106.643 125.015 107.75C124.128 108.281 122.971 109.775 122.661 110.669C122.068 112.407 122.729 113.807 124.351 114.963C126.56 116.533 129.757 116.982 133.351 116.688C137.128 116.361 141.407 115.029 144.876 113.724ZM148.865 105.656C149.133 105.134 149.224 104.751 148.863 104.666C148.458 104.569 148.727 105.259 148.865 105.656Z" fill="#335E4A"/>
</svg>
