<svg width="18" height="16" viewBox="0 0 18 16" fill="none" xmlns="http://www.w3.org/2000/svg">
<path d="M11.1731 14.7784L11.179 14.7726L17.221 8.73845C17.2687 8.69049 17.3111 8.63753 17.3474 8.58048L17.4421 8.40673L17.4816 8.28826V8.20137C17.5061 8.06821 17.5061 7.93172 17.4816 7.79856V7.62482L17.4106 7.49054C17.3699 7.41571 17.3195 7.34664 17.2605 7.28517L11.179 1.22735C10.7765 0.821698 10.1214 0.81907 9.71576 1.2215L9.70991 1.22735C9.31977 1.63626 9.31977 2.27957 9.70991 2.68851L13.3114 6.29794C13.4641 6.45365 13.4617 6.7037 13.3059 6.85638C13.2335 6.92743 13.1365 6.96786 13.035 6.96926L1.27474 6.96926C0.703297 6.96922 0.240037 7.43241 0.24 8.00385C0.239963 8.57529 0.703149 9.03852 1.27459 9.03859H13.035C13.2531 9.04166 13.4274 9.22093 13.4243 9.43899C13.4229 9.54043 13.3825 9.63746 13.3114 9.70992L9.70991 13.3036C9.31474 13.7135 9.31474 14.3627 9.70991 14.7726C10.1123 15.1783 10.7675 15.1809 11.1731 14.7784Z" fill="#2F7152"/>
</svg>
