<svg width="343" height="218" viewBox="0 0 343 218" fill="none" xmlns="http://www.w3.org/2000/svg">
<g clip-path="url(#clip0_2111_49)">
<mask id="mask0_2111_49" style="mask-type:luminance" maskUnits="userSpaceOnUse" x="0" y="0" width="343" height="218">
<path d="M327 0H16C7.16344 0 0 7.16344 0 16V202C0 210.837 7.16344 218 16 218H327C335.837 218 343 210.837 343 202V16C343 7.16344 335.837 0 327 0Z" fill="white"/>
</mask>
<g mask="url(#mask0_2111_49)">
<path d="M327 0H16C7.16344 0 0 7.16344 0 16V202C0 210.837 7.16344 218 16 218H327C335.837 218 343 210.837 343 202V16C343 7.16344 335.837 0 327 0Z" fill="url(#paint0_linear_2111_49)"/>
<mask id="mask1_2111_49" style="mask-type:luminance" maskUnits="userSpaceOnUse" x="64" y="0" width="279" height="218">
<path d="M343 0H64V218H343V0Z" fill="white"/>
</mask>
<g mask="url(#mask1_2111_49)">
<path d="M250 353C352.725 353 436 269.725 436 167C436 64.275 352.725 -19 250 -19C147.275 -19 64 64.275 64 167C64 269.725 147.275 353 250 353Z" fill="white" fill-opacity="0.1"/>
<path d="M302 378C404.725 378 488 294.725 488 192C488 89.275 404.725 6 302 6C199.275 6 116 89.275 116 192C116 294.725 199.275 378 302 378Z" fill="white" fill-opacity="0.2"/>
<path d="M353 420C455.725 420 539 336.725 539 234C539 131.275 455.725 48 353 48C250.275 48 167 131.275 167 234C167 336.725 250.275 420 353 420Z" fill="white" fill-opacity="0.4"/>
</g>
<mask id="mask2_2111_49" style="mask-type:luminance" maskUnits="userSpaceOnUse" x="295" y="24" width="24" height="24">
<path d="M319 24H295V48H319V24Z" fill="white"/>
</mask>
<g mask="url(#mask2_2111_49)">
<path fill-rule="evenodd" clip-rule="evenodd" d="M310.333 31.0112C309.347 30.3519 308.187 30 307 30V24C309.373 24 311.693 24.7038 313.667 26.0224C315.64 27.3409 317.178 29.2151 318.087 31.4078C318.995 33.6005 319.232 36.0133 318.769 38.3411C318.306 40.6688 317.164 42.8071 315.485 44.4853C313.807 46.1635 311.669 47.3064 309.341 47.7694C307.013 48.2324 304.6 47.9948 302.408 47.0866C300.215 46.1783 298.341 44.6402 297.022 42.6668C295.704 40.6934 295 38.3734 295 36H301C301 37.1867 301.352 38.3467 302.011 39.3334C302.67 40.3201 303.608 41.0891 304.704 41.5433C305.8 41.9974 307.007 42.1162 308.171 41.8847C309.334 41.6532 310.404 41.0818 311.243 40.2427C312.082 39.4035 312.653 38.3344 312.885 37.1705C313.116 36.0067 312.997 34.8002 312.543 33.7039C312.089 32.6075 311.32 31.6705 310.333 31.0112Z" fill="white"/>
<path fill-rule="evenodd" clip-rule="evenodd" d="M301 24C301 24.7879 300.845 25.5682 300.543 26.2961C300.242 27.0241 299.8 27.6855 299.243 28.2426C298.685 28.7998 298.024 29.2418 297.296 29.5433C296.568 29.8448 295.788 30 295 30V36C296.576 36 298.136 35.6896 299.592 35.0866C301.048 34.4835 302.371 33.5996 303.485 32.4853C304.6 31.371 305.483 30.0481 306.087 28.5922C306.69 27.1363 307 25.5759 307 24H301Z" fill="white"/>
</g>
<path d="M285 189C292.732 189 299 182.732 299 175C299 167.268 292.732 161 285 161C277.268 161 271 167.268 271 175C271 182.732 277.268 189 285 189Z" fill="#E33A24"/>
<path d="M305 189C312.732 189 319 182.732 319 175C319 167.268 312.732 161 305 161C297.268 161 291 167.268 291 175C291 182.732 297.268 189 305 189Z" fill="#F8CB2E" fill-opacity="0.8"/>
</g>
</g>
<defs>
<linearGradient id="paint0_linear_2111_49" x1="0" y1="0" x2="343" y2="218" gradientUnits="userSpaceOnUse">
<stop stop-color="#2493E3"/>
<stop offset="1" stop-color="#229F0E"/>
</linearGradient>
<clipPath id="clip0_2111_49">
<rect width="343" height="218" fill="white"/>
</clipPath>
</defs>
</svg>
